<?xml version="1.0" encoding="UTF-8"?>
<svg xmlns="http://www.w3.org/2000/svg" width="80" height="80" viewBox="0 0 80 80" role="img" aria-label="Cute flat panda">
  <!-- flat / sticker style -->
  <circle cx="40" cy="42" r="28" fill="#ffffff"/>
  <circle cx="18" cy="20" r="12" fill="#1f1f1f"/>
  <circle cx="62" cy="20" r="12" fill="#1f1f1f"/>
  <circle cx="28" cy="40" r="11" fill="#1f1f1f"/>
  <circle cx="52" cy="40" r="11" fill="#1f1f1f"/>
  <circle cx="30" cy="38" r="4" fill="#ffffff"/>
  <circle cx="54" cy="38" r="4" fill="#ffffff"/>
  <circle cx="31" cy="39" r="2" fill="#1f1f1f"/>
  <circle cx="55" cy="39" r="2" fill="#1f1f1f"/>
  <ellipse cx="40" cy="50" rx="4" ry="3" fill="#1f1f1f"/>
  <path d="M40 52.5 Q36 56 33 54.5" fill="none" stroke="#1f1f1f" stroke-width="1.5" stroke-linecap="round"/>
  <path d="M40 52.5 Q44 56 47 54.5" fill="none" stroke="#1f1f1f" stroke-width="1.5" stroke-linecap="round"/>
  <!-- tiny bamboo -->
  <rect x="58" y="48" width="5" height="22" rx="2" fill="#7bc67e"/>
  <rect x="64" y="52" width="5" height="18" rx="2" fill="#5aad5e"/>
  <line x1="60.5" y1="54" x2="60.5" y2="68" stroke="#4a9a4c" stroke-width="0.8"/>
  <line x1="66.5" y1="58" x2="66.5" y2="68" stroke="#4a9a4c" stroke-width="0.8"/>
</svg>
